# xmcd
#
# Track frame offsets:
#	150
#	11724
#	30793
#	45167
#	61837
#	78886
#	91563
#	106965
#	120981
#	136950
#	153564
#	175254
#	193996
#
# Disc length: 2859 seconds
#
# Revision: 1
# Processed by: cddbd v1.5.1PL0 Copyright (c) Steve Scherf et al.
# Submitted via: audiograbber 1.83.01
#
DISCID=8e0b290d
DTITLE=STASYS POVILAITIS - Dar Po Viena
DYEAR=1900
DGENRE=
TTITLE0=Dar Po Viena
TTITLE1=Ziedai, Ziedai
TTITLE2=Sudie, Mama
TTITLE3=Samanele
TTITLE4=Benamio Meile
TTITLE5=Padovanokit Sypsena
TTITLE6=Pogovorim
TTITLE7=Suomiska Pirtis
TTITLE8=Nidos Berzai
TTITLE9=O, Franka
TTITLE10=Neziurek, Nezibek
TTITLE11=Putana
TTITLE12=Sveikas, Dainininke
EXTD=
EXTT0=
EXTT1=
EXTT2=
EXTT3=
EXTT4=
EXTT5=
EXTT6=
EXTT7=
EXTT8=
EXTT9=
EXTT10=
EXTT11=
EXTT12=
PLAYORDER=
